<?xml version="1.0" encoding="UTF-8"?>
<svg version="1.1" xmlns="http://www.w3.org/2000/svg" width="100" height="100">
<path d="M0 0 C0.91120605 0.00202423 1.82241211 0.00404846 2.76123047 0.00613403 C3.71562012 0.00438171 4.67000977 0.00262939 5.65332031 0.00082397 C8.82472524 -0.0035963 11.99607492 -0.00065593 15.16748047 0.00271606 C17.36083995 0.00204308 19.55419937 0.00107309 21.74755859 -0.00018311 C26.35108142 -0.00166032 30.95458489 0.00049523 35.55810547 0.00515747 C41.47352642 0.01085477 47.388902 0.00757589 53.30432129 0.00158501 C57.83545273 -0.00201998 62.36657332 -0.00088231 66.89770508 0.0017128 C69.07950852 0.00238224 71.26131293 0.00155305 73.44311523 -0.00076675 C76.48668036 -0.00329225 79.53017093 0.00054587 82.57373047 0.00613403 C83.48493652 0.0041098 84.39614258 0.00208557 85.33496094 0 C91.55321817 0.02126627 91.55321817 0.02126627 92.66748047 1.13552856 C92.76052065 2.60907204 92.78494312 4.08703447 92.78100586 5.56350708 C92.78088501 6.51761475 92.78076416 7.47172241 92.78063965 8.45474243 C92.77552368 9.46444092 92.77040771 10.4741394 92.76513672 11.51443481 C92.76412964 12.43736328 92.76312256 13.36029175 92.76208496 14.31118774 C92.75683541 17.77348058 92.74287428 21.23575576 92.72998047 24.69802856 C92.70935547 32.43240356 92.68873047 40.16677856 92.66748047 48.13552856 C76.49748047 48.46552856 60.32748047 48.79552856 43.66748047 49.13552856 C43.33748047 65.96552856 43.00748047 82.79552856 42.66748047 100.13552856 C34.60310547 100.15615356 26.53873047 100.17677856 18.22998047 100.19802856 C15.68093994 100.20713257 13.13189941 100.21623657 10.50561523 100.22561646 C8.49837293 100.22853545 6.49113004 100.23108404 4.48388672 100.23318481 C3.43100464 100.23830078 2.37812256 100.24341675 1.29333496 100.24868774 C-0.19873474 100.24886902 -0.19873474 100.24886902 -1.72094727 100.24905396 C-2.58920639 100.25127457 -3.45746552 100.25349518 -4.35203552 100.25578308 C-6.33251953 100.13552856 -6.33251953 100.13552856 -7.33251953 99.13552856 C-7.43316152 96.09687096 -7.46866543 93.08090127 -7.46191406 90.04177856 C-7.46366638 89.08738892 -7.4654187 88.13299927 -7.46722412 87.14968872 C-7.4716444 83.97828379 -7.46870403 80.80693411 -7.46533203 77.63552856 C-7.46600502 75.44216908 -7.466975 73.24880967 -7.4682312 71.05545044 C-7.46970841 66.45192761 -7.46755287 61.84842415 -7.46289062 57.24490356 C-7.45719333 51.32948261 -7.46047221 45.41410703 -7.46646309 39.49868774 C-7.47006807 34.96755631 -7.4689304 30.43643571 -7.4663353 25.90530396 C-7.46566585 23.72350052 -7.46649505 21.54169611 -7.46881485 19.3598938 C-7.47134035 16.31632867 -7.46750223 13.27283811 -7.46191406 10.22927856 C-7.46393829 9.31807251 -7.46596252 8.40686646 -7.4680481 7.4680481 C-7.44297681 0.13720305 -7.33084504 0.02507129 0 0 Z " fill="#000000" transform="translate(7.33251953125,-0.135528564453125)"/>
<path d="M0 0 C13.53 0 27.06 0 41 0 C41 13.53 41 27.06 41 41 C27.47 41 13.94 41 0 41 C0 27.47 0 13.94 0 0 Z " fill="#D9D9D9" transform="translate(59,59)"/>
</svg>
